<mxfile host="app.diagrams.net" modified="2023-08-23T09:57:51.140Z" agent="Mozilla/5.0 (Windows NT 10.0; Win64; x64; rv:102.0) Gecko/20100101 Firefox/102.0" etag="ddCIHgAAVTHKgHWAYhKM" version="21.6.8" type="device">
  <diagram name="Page-1" id="sAueeR_DeyDTOokNU9W1">
    <mxGraphModel dx="1195" dy="685" grid="1" gridSize="10" guides="1" tooltips="1" connect="1" arrows="1" fold="1" page="1" pageScale="1" pageWidth="1654" pageHeight="1169" math="0" shadow="0">
      <root>
        <mxCell id="0" />
        <mxCell id="1" parent="0" />
        <mxCell id="fqn3BlmnmB48ulFy7r9I-1" value="" style="rounded=0;whiteSpace=wrap;html=1;fillColor=#F3E9C9;strokeColor=#36393d;strokeWidth=2;" parent="1" vertex="1">
          <mxGeometry x="190" y="100" width="780" height="500" as="geometry" />
        </mxCell>
        <mxCell id="52rDspOR7L93NlqgASMx-22" style="edgeStyle=orthogonalEdgeStyle;rounded=0;orthogonalLoop=1;jettySize=auto;html=1;entryX=0;entryY=0.5;entryDx=0;entryDy=0;strokeWidth=2;" parent="1" source="fqn3BlmnmB48ulFy7r9I-2" target="fqn3BlmnmB48ulFy7r9I-3" edge="1">
          <mxGeometry relative="1" as="geometry" />
        </mxCell>
        <mxCell id="fqn3BlmnmB48ulFy7r9I-2" value="&lt;div&gt;Driver(s) LEDs&lt;/div&gt;&amp;nbsp;de puissance" style="rounded=0;whiteSpace=wrap;html=1;strokeWidth=2;" parent="1" vertex="1">
          <mxGeometry x="830" y="220" width="120" height="60" as="geometry" />
        </mxCell>
        <mxCell id="fqn3BlmnmB48ulFy7r9I-3" value="LEDs" style="rounded=0;whiteSpace=wrap;html=1;strokeWidth=2;" parent="1" vertex="1">
          <mxGeometry x="1010" y="220" width="120" height="60" as="geometry" />
        </mxCell>
        <mxCell id="52rDspOR7L93NlqgASMx-21" style="edgeStyle=orthogonalEdgeStyle;rounded=0;orthogonalLoop=1;jettySize=auto;html=1;exitX=1;exitY=0.5;exitDx=0;exitDy=0;entryX=0;entryY=0.5;entryDx=0;entryDy=0;strokeWidth=2;" parent="1" source="fqn3BlmnmB48ulFy7r9I-5" target="fqn3BlmnmB48ulFy7r9I-6" edge="1">
          <mxGeometry relative="1" as="geometry" />
        </mxCell>
        <mxCell id="fqn3BlmnmB48ulFy7r9I-5" value="Driver(s) moteur" style="rounded=0;whiteSpace=wrap;html=1;strokeWidth=2;" parent="1" vertex="1">
          <mxGeometry x="830" y="120" width="120" height="60" as="geometry" />
        </mxCell>
        <mxCell id="fqn3BlmnmB48ulFy7r9I-6" value="Moteur de positionnement" style="rounded=0;whiteSpace=wrap;html=1;strokeWidth=2;" parent="1" vertex="1">
          <mxGeometry x="1010" y="120" width="120" height="60" as="geometry" />
        </mxCell>
        <mxCell id="fqn3BlmnmB48ulFy7r9I-7" value="Afficheur LCD" style="rounded=0;whiteSpace=wrap;html=1;strokeWidth=2;" parent="1" vertex="1">
          <mxGeometry x="380" y="520" width="120" height="60" as="geometry" />
        </mxCell>
        <mxCell id="n2ihInhJ-IvaEsw8NIyU-6" style="edgeStyle=orthogonalEdgeStyle;rounded=0;orthogonalLoop=1;jettySize=auto;html=1;entryX=0;entryY=0.25;entryDx=0;entryDy=0;strokeWidth=2;" parent="1" source="fqn3BlmnmB48ulFy7r9I-8" target="52rDspOR7L93NlqgASMx-8" edge="1">
          <mxGeometry relative="1" as="geometry" />
        </mxCell>
        <mxCell id="n2ihInhJ-IvaEsw8NIyU-49" value="&lt;div&gt;GPIO&lt;/div&gt;" style="edgeLabel;html=1;align=center;verticalAlign=middle;resizable=0;points=[];labelBackgroundColor=none;" parent="n2ihInhJ-IvaEsw8NIyU-6" vertex="1" connectable="0">
          <mxGeometry x="-0.5709" relative="1" as="geometry">
            <mxPoint x="8" y="-10" as="offset" />
          </mxGeometry>
        </mxCell>
        <mxCell id="fqn3BlmnmB48ulFy7r9I-8" value="&lt;div&gt;Interface de &lt;br&gt;&lt;/div&gt;&lt;div&gt;contrÃ´le&lt;/div&gt;" style="rounded=0;whiteSpace=wrap;html=1;strokeWidth=2;" parent="1" vertex="1">
          <mxGeometry x="210" y="270" width="120" height="60" as="geometry" />
        </mxCell>
        <mxCell id="n2ihInhJ-IvaEsw8NIyU-15" style="edgeStyle=orthogonalEdgeStyle;rounded=0;orthogonalLoop=1;jettySize=auto;html=1;entryX=0;entryY=0.5;entryDx=0;entryDy=0;strokeWidth=2;dashed=1;" parent="1" source="52rDspOR7L93NlqgASMx-3" target="52rDspOR7L93NlqgASMx-7" edge="1">
          <mxGeometry relative="1" as="geometry" />
        </mxCell>
        <mxCell id="52rDspOR7L93NlqgASMx-3" value="LED IR" style="rounded=0;whiteSpace=wrap;html=1;strokeWidth=2;" parent="1" vertex="1">
          <mxGeometry x="1010" y="320" width="120" height="60" as="geometry" />
        </mxCell>
        <mxCell id="52rDspOR7L93NlqgASMx-23" style="edgeStyle=orthogonalEdgeStyle;rounded=0;orthogonalLoop=1;jettySize=auto;html=1;exitX=1;exitY=0.5;exitDx=0;exitDy=0;entryX=0;entryY=0.5;entryDx=0;entryDy=0;strokeWidth=2;" parent="1" source="52rDspOR7L93NlqgASMx-4" target="52rDspOR7L93NlqgASMx-3" edge="1">
          <mxGeometry relative="1" as="geometry" />
        </mxCell>
        <mxCell id="52rDspOR7L93NlqgASMx-4" value="&lt;div&gt;Driver LED IR&lt;br&gt;&lt;/div&gt;" style="rounded=0;whiteSpace=wrap;html=1;strokeWidth=2;" parent="1" vertex="1">
          <mxGeometry x="830" y="320" width="120" height="60" as="geometry" />
        </mxCell>
        <mxCell id="52rDspOR7L93NlqgASMx-6" value="&lt;div&gt;Appareil photo&lt;br&gt;&lt;/div&gt;&lt;div&gt;Nikon D750&lt;br&gt;&lt;/div&gt;" style="rounded=0;whiteSpace=wrap;html=1;strokeWidth=2;" parent="1" vertex="1">
          <mxGeometry x="1010" y="420" width="120" height="60" as="geometry" />
        </mxCell>
        <mxCell id="52rDspOR7L93NlqgASMx-7" value="&lt;div&gt;Appareil photo&lt;br&gt;&lt;/div&gt;&lt;div&gt;Sony A7R&lt;br&gt;&lt;/div&gt;" style="rounded=0;whiteSpace=wrap;html=1;strokeWidth=2;" parent="1" vertex="1">
          <mxGeometry x="1170" y="320" width="120" height="60" as="geometry" />
        </mxCell>
        <mxCell id="52rDspOR7L93NlqgASMx-14" style="edgeStyle=orthogonalEdgeStyle;rounded=0;orthogonalLoop=1;jettySize=auto;html=1;exitX=0.25;exitY=1;exitDx=0;exitDy=0;entryX=0.5;entryY=0;entryDx=0;entryDy=0;strokeWidth=2;" parent="1" source="52rDspOR7L93NlqgASMx-8" target="fqn3BlmnmB48ulFy7r9I-7" edge="1">
          <mxGeometry relative="1" as="geometry">
            <Array as="points">
              <mxPoint x="440" y="440" />
            </Array>
          </mxGeometry>
        </mxCell>
        <mxCell id="n2ihInhJ-IvaEsw8NIyU-53" value="SPI" style="edgeLabel;html=1;align=center;verticalAlign=middle;resizable=0;points=[];labelBackgroundColor=none;" parent="52rDspOR7L93NlqgASMx-14" vertex="1" connectable="0">
          <mxGeometry x="0.2633" y="2" relative="1" as="geometry">
            <mxPoint x="18" y="4" as="offset" />
          </mxGeometry>
        </mxCell>
        <mxCell id="n2ihInhJ-IvaEsw8NIyU-1" style="edgeStyle=orthogonalEdgeStyle;rounded=0;orthogonalLoop=1;jettySize=auto;html=1;exitX=0.5;exitY=1;exitDx=0;exitDy=0;entryX=0.5;entryY=0;entryDx=0;entryDy=0;strokeWidth=2;" parent="1" source="52rDspOR7L93NlqgASMx-8" target="220DTqXSZQvsgX-sUDnP-1" edge="1">
          <mxGeometry relative="1" as="geometry" />
        </mxCell>
        <mxCell id="n2ihInhJ-IvaEsw8NIyU-52" value="GPIO" style="edgeLabel;html=1;align=center;verticalAlign=middle;resizable=0;points=[];labelBackgroundColor=none;" parent="n2ihInhJ-IvaEsw8NIyU-1" vertex="1" connectable="0">
          <mxGeometry x="-0.105" y="-1" relative="1" as="geometry">
            <mxPoint x="21" y="4" as="offset" />
          </mxGeometry>
        </mxCell>
        <mxCell id="n2ihInhJ-IvaEsw8NIyU-2" style="edgeStyle=orthogonalEdgeStyle;rounded=0;orthogonalLoop=1;jettySize=auto;html=1;exitX=0.75;exitY=1;exitDx=0;exitDy=0;entryX=0.5;entryY=0;entryDx=0;entryDy=0;strokeWidth=2;" parent="1" source="52rDspOR7L93NlqgASMx-8" target="52rDspOR7L93NlqgASMx-43" edge="1">
          <mxGeometry relative="1" as="geometry">
            <Array as="points">
              <mxPoint x="720" y="440" />
            </Array>
          </mxGeometry>
        </mxCell>
        <mxCell id="n2ihInhJ-IvaEsw8NIyU-51" value="PWM" style="edgeLabel;html=1;align=center;verticalAlign=middle;resizable=0;points=[];labelBackgroundColor=none;" parent="n2ihInhJ-IvaEsw8NIyU-2" vertex="1" connectable="0">
          <mxGeometry x="0.3524" y="-1" relative="1" as="geometry">
            <mxPoint x="16" y="-1" as="offset" />
          </mxGeometry>
        </mxCell>
        <mxCell id="n2ihInhJ-IvaEsw8NIyU-9" style="edgeStyle=orthogonalEdgeStyle;rounded=0;orthogonalLoop=1;jettySize=auto;html=1;exitX=1;exitY=0.5;exitDx=0;exitDy=0;entryX=0;entryY=0.5;entryDx=0;entryDy=0;strokeWidth=2;" parent="1" source="52rDspOR7L93NlqgASMx-8" target="52rDspOR7L93NlqgASMx-4" edge="1">
          <mxGeometry relative="1" as="geometry" />
        </mxCell>
        <mxCell id="n2ihInhJ-IvaEsw8NIyU-54" value="GPIO" style="edgeLabel;html=1;align=center;verticalAlign=middle;resizable=0;points=[];labelBackgroundColor=none;" parent="n2ihInhJ-IvaEsw8NIyU-9" vertex="1" connectable="0">
          <mxGeometry x="-0.1657" y="-2" relative="1" as="geometry">
            <mxPoint y="-12" as="offset" />
          </mxGeometry>
        </mxCell>
        <mxCell id="n2ihInhJ-IvaEsw8NIyU-11" style="edgeStyle=orthogonalEdgeStyle;rounded=0;orthogonalLoop=1;jettySize=auto;html=1;exitX=1;exitY=0.25;exitDx=0;exitDy=0;strokeWidth=2;" parent="1" source="52rDspOR7L93NlqgASMx-8" target="fqn3BlmnmB48ulFy7r9I-2" edge="1">
          <mxGeometry relative="1" as="geometry" />
        </mxCell>
        <mxCell id="n2ihInhJ-IvaEsw8NIyU-56" value="PWM" style="edgeLabel;html=1;align=center;verticalAlign=middle;resizable=0;points=[];labelBackgroundColor=none;" parent="n2ihInhJ-IvaEsw8NIyU-11" vertex="1" connectable="0">
          <mxGeometry x="-0.6118" y="-2" relative="1" as="geometry">
            <mxPoint x="20" y="-7" as="offset" />
          </mxGeometry>
        </mxCell>
        <mxCell id="n2ihInhJ-IvaEsw8NIyU-12" style="edgeStyle=orthogonalEdgeStyle;rounded=0;orthogonalLoop=1;jettySize=auto;html=1;exitX=0.75;exitY=0;exitDx=0;exitDy=0;entryX=0;entryY=0.5;entryDx=0;entryDy=0;strokeWidth=2;" parent="1" source="52rDspOR7L93NlqgASMx-8" target="fqn3BlmnmB48ulFy7r9I-5" edge="1">
          <mxGeometry relative="1" as="geometry" />
        </mxCell>
        <mxCell id="n2ihInhJ-IvaEsw8NIyU-57" value="PWM" style="edgeLabel;html=1;align=center;verticalAlign=middle;resizable=0;points=[];labelBackgroundColor=none;" parent="n2ihInhJ-IvaEsw8NIyU-12" vertex="1" connectable="0">
          <mxGeometry x="0.6366" y="-2" relative="1" as="geometry">
            <mxPoint x="-93" y="-12" as="offset" />
          </mxGeometry>
        </mxCell>
        <mxCell id="n2ihInhJ-IvaEsw8NIyU-46" style="edgeStyle=orthogonalEdgeStyle;rounded=0;orthogonalLoop=1;jettySize=auto;html=1;exitX=1;exitY=0.75;exitDx=0;exitDy=0;entryX=0;entryY=0.5;entryDx=0;entryDy=0;strokeWidth=2;" parent="1" source="52rDspOR7L93NlqgASMx-8" target="n2ihInhJ-IvaEsw8NIyU-45" edge="1">
          <mxGeometry relative="1" as="geometry" />
        </mxCell>
        <mxCell id="n2ihInhJ-IvaEsw8NIyU-55" value="GPIO" style="edgeLabel;html=1;align=center;verticalAlign=middle;resizable=0;points=[];labelBackgroundColor=none;" parent="n2ihInhJ-IvaEsw8NIyU-46" vertex="1" connectable="0">
          <mxGeometry x="-0.7206" y="-2" relative="1" as="geometry">
            <mxPoint x="25" y="3" as="offset" />
          </mxGeometry>
        </mxCell>
        <mxCell id="52rDspOR7L93NlqgASMx-8" value="MicrocontrÃ´leur" style="rounded=0;whiteSpace=wrap;html=1;strokeWidth=2;" parent="1" vertex="1">
          <mxGeometry x="380" y="260" width="400" height="180" as="geometry" />
        </mxCell>
        <mxCell id="52rDspOR7L93NlqgASMx-39" style="edgeStyle=orthogonalEdgeStyle;rounded=0;orthogonalLoop=1;jettySize=auto;html=1;entryX=0;entryY=0.5;entryDx=0;entryDy=0;strokeWidth=2;" parent="1" target="52rDspOR7L93NlqgASMx-6" edge="1">
          <mxGeometry relative="1" as="geometry">
            <mxPoint x="950" y="450" as="sourcePoint" />
          </mxGeometry>
        </mxCell>
        <mxCell id="n2ihInhJ-IvaEsw8NIyU-5" style="edgeStyle=orthogonalEdgeStyle;rounded=0;orthogonalLoop=1;jettySize=auto;html=1;entryX=0;entryY=0.75;entryDx=0;entryDy=0;strokeWidth=2;" parent="1" source="52rDspOR7L93NlqgASMx-42" target="52rDspOR7L93NlqgASMx-8" edge="1">
          <mxGeometry relative="1" as="geometry" />
        </mxCell>
        <mxCell id="n2ihInhJ-IvaEsw8NIyU-47" value="GPIO" style="edgeLabel;html=1;align=center;verticalAlign=middle;resizable=0;points=[];labelBackgroundColor=none;" parent="n2ihInhJ-IvaEsw8NIyU-5" vertex="1" connectable="0">
          <mxGeometry x="-0.3763" y="-1" relative="1" as="geometry">
            <mxPoint x="3" y="9" as="offset" />
          </mxGeometry>
        </mxCell>
        <mxCell id="52rDspOR7L93NlqgASMx-42" value="SystÃ¨me d&#39;indexage" style="rounded=0;whiteSpace=wrap;html=1;strokeWidth=2;" parent="1" vertex="1">
          <mxGeometry x="210" y="370" width="120" height="60" as="geometry" />
        </mxCell>
        <mxCell id="52rDspOR7L93NlqgASMx-43" value="Buzzer" style="rounded=0;whiteSpace=wrap;html=1;strokeWidth=2;" parent="1" vertex="1">
          <mxGeometry x="660" y="520" width="120" height="60" as="geometry" />
        </mxCell>
        <mxCell id="220DTqXSZQvsgX-sUDnP-1" value="LED de vie" style="rounded=0;whiteSpace=wrap;html=1;strokeWidth=2;" parent="1" vertex="1">
          <mxGeometry x="520" y="520" width="120" height="60" as="geometry" />
        </mxCell>
        <mxCell id="n2ihInhJ-IvaEsw8NIyU-24" value="" style="endArrow=none;html=1;rounded=0;dashed=1;strokeWidth=2;strokeColor=#009900;exitX=0.808;exitY=0.38;exitDx=0;exitDy=0;exitPerimeter=0;" parent="1" source="fqn3BlmnmB48ulFy7r9I-1" edge="1">
          <mxGeometry width="50" height="50" relative="1" as="geometry">
            <mxPoint x="1020" y="290" as="sourcePoint" />
            <mxPoint x="1140" y="290" as="targetPoint" />
          </mxGeometry>
        </mxCell>
        <mxCell id="n2ihInhJ-IvaEsw8NIyU-36" value="" style="endArrow=none;html=1;rounded=0;dashed=1;strokeColor=#0000ff;strokeWidth=2;" parent="1" edge="1">
          <mxGeometry width="50" height="50" relative="1" as="geometry">
            <mxPoint x="1140" y="410" as="sourcePoint" />
            <mxPoint x="1140" y="490" as="targetPoint" />
          </mxGeometry>
        </mxCell>
        <mxCell id="n2ihInhJ-IvaEsw8NIyU-37" value="" style="endArrow=none;html=1;rounded=0;dashed=1;strokeColor=#0000ff;strokeWidth=2;" parent="1" edge="1">
          <mxGeometry width="50" height="50" relative="1" as="geometry">
            <mxPoint x="890" y="410" as="sourcePoint" />
            <mxPoint x="890" y="490" as="targetPoint" />
          </mxGeometry>
        </mxCell>
        <mxCell id="n2ihInhJ-IvaEsw8NIyU-38" value="" style="endArrow=none;html=1;rounded=0;dashed=1;strokeColor=#0000ff;strokeWidth=2;" parent="1" edge="1">
          <mxGeometry width="50" height="50" relative="1" as="geometry">
            <mxPoint x="1140" y="410" as="sourcePoint" />
            <mxPoint x="890" y="410" as="targetPoint" />
          </mxGeometry>
        </mxCell>
        <mxCell id="n2ihInhJ-IvaEsw8NIyU-39" value="" style="endArrow=none;html=1;rounded=0;dashed=1;strokeColor=#0000ff;strokeWidth=2;" parent="1" edge="1">
          <mxGeometry width="50" height="50" relative="1" as="geometry">
            <mxPoint x="1140" y="490" as="sourcePoint" />
            <mxPoint x="890" y="490" as="targetPoint" />
          </mxGeometry>
        </mxCell>
        <mxCell id="n2ihInhJ-IvaEsw8NIyU-45" value="Optocoupleurs" style="rounded=0;whiteSpace=wrap;html=1;strokeWidth=2;" parent="1" vertex="1">
          <mxGeometry x="830" y="420" width="120" height="60" as="geometry" />
        </mxCell>
        <mxCell id="n2ihInhJ-IvaEsw8NIyU-60" value="&lt;font color=&quot;#0000FF&quot;&gt;Alim par appareil photo&lt;/font&gt;" style="text;html=1;strokeColor=none;fillColor=none;align=left;verticalAlign=top;whiteSpace=wrap;rounded=0;fontColor=#FF0000;fontStyle=1;fontSize=15;" parent="1" vertex="1">
          <mxGeometry x="1150" y="415" width="90" height="70" as="geometry" />
        </mxCell>
        <mxCell id="VRM8dFKcxAQUK2xVJEkD-11" style="edgeStyle=orthogonalEdgeStyle;rounded=0;orthogonalLoop=1;jettySize=auto;html=1;exitX=0.5;exitY=0;exitDx=0;exitDy=0;entryX=0.5;entryY=0;entryDx=0;entryDy=0;strokeWidth=2;" edge="1" parent="1" source="fqn3BlmnmB48ulFy7r9I-6" target="52rDspOR7L93NlqgASMx-8">
          <mxGeometry relative="1" as="geometry">
            <mxPoint x="1010" y="70" as="sourcePoint" />
            <Array as="points">
              <mxPoint x="1070" y="80" />
              <mxPoint x="580" y="80" />
            </Array>
          </mxGeometry>
        </mxCell>
        <mxCell id="VRM8dFKcxAQUK2xVJEkD-14" value="QEI (si moteur DC)" style="edgeLabel;html=1;align=center;verticalAlign=middle;resizable=0;points=[];" vertex="1" connectable="0" parent="VRM8dFKcxAQUK2xVJEkD-11">
          <mxGeometry x="0.2493" y="1" relative="1" as="geometry">
            <mxPoint x="-47" y="-11" as="offset" />
          </mxGeometry>
        </mxCell>
        <mxCell id="VRM8dFKcxAQUK2xVJEkD-2" value="" style="endArrow=none;html=1;rounded=0;dashed=1;strokeWidth=2;strokeColor=#009900;exitX=0.808;exitY=0.38;exitDx=0;exitDy=0;exitPerimeter=0;" edge="1" parent="1">
          <mxGeometry width="50" height="50" relative="1" as="geometry">
            <mxPoint x="820" y="210" as="sourcePoint" />
            <mxPoint x="1140" y="210" as="targetPoint" />
          </mxGeometry>
        </mxCell>
        <mxCell id="VRM8dFKcxAQUK2xVJEkD-3" value="" style="endArrow=none;html=1;rounded=0;dashed=1;strokeWidth=2;strokeColor=#009900;" edge="1" parent="1">
          <mxGeometry width="50" height="50" relative="1" as="geometry">
            <mxPoint x="1140" y="290" as="sourcePoint" />
            <mxPoint x="1140" y="210" as="targetPoint" />
          </mxGeometry>
        </mxCell>
        <mxCell id="VRM8dFKcxAQUK2xVJEkD-4" value="" style="endArrow=none;html=1;rounded=0;dashed=1;strokeWidth=2;strokeColor=#009900;" edge="1" parent="1">
          <mxGeometry width="50" height="50" relative="1" as="geometry">
            <mxPoint x="820" y="290" as="sourcePoint" />
            <mxPoint x="820" y="210" as="targetPoint" />
          </mxGeometry>
        </mxCell>
        <mxCell id="VRM8dFKcxAQUK2xVJEkD-5" value="" style="endArrow=none;html=1;rounded=0;dashed=1;strokeWidth=2;strokeColor=#FF0000;" edge="1" parent="1">
          <mxGeometry width="50" height="50" relative="1" as="geometry">
            <mxPoint x="1140" y="190" as="sourcePoint" />
            <mxPoint x="1140" y="70" as="targetPoint" />
          </mxGeometry>
        </mxCell>
        <mxCell id="VRM8dFKcxAQUK2xVJEkD-6" value="Tension d&#39;alimentation +12V ou +24V" style="text;html=1;strokeColor=none;fillColor=none;align=left;verticalAlign=middle;whiteSpace=wrap;rounded=0;fontStyle=1;fontColor=#FF0000;fontSize=15;" vertex="1" parent="1">
          <mxGeometry x="1150" y="122.5" width="90" height="55" as="geometry" />
        </mxCell>
        <mxCell id="VRM8dFKcxAQUK2xVJEkD-7" value="&lt;div style=&quot;font-size: 15px;&quot;&gt;+12V&lt;/div&gt;" style="text;html=1;strokeColor=none;fillColor=none;align=left;verticalAlign=middle;whiteSpace=wrap;rounded=0;fontStyle=1;fontColor=#009900;fontSize=15;" vertex="1" parent="1">
          <mxGeometry x="1150" y="235" width="90" height="30" as="geometry" />
        </mxCell>
        <mxCell id="VRM8dFKcxAQUK2xVJEkD-8" value="" style="endArrow=none;html=1;rounded=0;dashed=1;strokeWidth=2;strokeColor=#FF0000;" edge="1" parent="1">
          <mxGeometry width="50" height="50" relative="1" as="geometry">
            <mxPoint x="820" y="190" as="sourcePoint" />
            <mxPoint x="1140" y="190" as="targetPoint" />
          </mxGeometry>
        </mxCell>
        <mxCell id="VRM8dFKcxAQUK2xVJEkD-9" value="" style="endArrow=none;html=1;rounded=0;dashed=1;strokeWidth=2;strokeColor=#FF0000;" edge="1" parent="1">
          <mxGeometry width="50" height="50" relative="1" as="geometry">
            <mxPoint x="820" y="70" as="sourcePoint" />
            <mxPoint x="1140" y="70" as="targetPoint" />
          </mxGeometry>
        </mxCell>
        <mxCell id="VRM8dFKcxAQUK2xVJEkD-10" value="" style="endArrow=none;html=1;rounded=0;dashed=1;strokeWidth=2;strokeColor=#FF0000;" edge="1" parent="1">
          <mxGeometry width="50" height="50" relative="1" as="geometry">
            <mxPoint x="820" y="190" as="sourcePoint" />
            <mxPoint x="820" y="70" as="targetPoint" />
          </mxGeometry>
        </mxCell>
        <mxCell id="VRM8dFKcxAQUK2xVJEkD-16" style="edgeStyle=orthogonalEdgeStyle;rounded=0;orthogonalLoop=1;jettySize=auto;html=1;strokeColor=#009900;strokeWidth=2;fontColor=#009900;" edge="1" parent="1">
          <mxGeometry relative="1" as="geometry">
            <mxPoint x="390" y="170" as="targetPoint" />
            <mxPoint x="330" y="170" as="sourcePoint" />
          </mxGeometry>
        </mxCell>
        <mxCell id="VRM8dFKcxAQUK2xVJEkD-17" style="edgeStyle=orthogonalEdgeStyle;rounded=0;orthogonalLoop=1;jettySize=auto;html=1;strokeColor=#000000;strokeWidth=2;fontColor=#000000;" edge="1" parent="1">
          <mxGeometry relative="1" as="geometry">
            <mxPoint x="390" y="132.26" as="targetPoint" />
            <mxPoint x="330" y="132.26" as="sourcePoint" />
          </mxGeometry>
        </mxCell>
        <mxCell id="VRM8dFKcxAQUK2xVJEkD-20" value="RÃ©gulateur(s) de tension" style="rounded=0;whiteSpace=wrap;html=1;strokeWidth=2;" vertex="1" parent="1">
          <mxGeometry x="210" y="120" width="120" height="60" as="geometry" />
        </mxCell>
        <mxCell id="VRM8dFKcxAQUK2xVJEkD-22" value="&lt;font color=&quot;#009900&quot;&gt;+12V&lt;/font&gt;" style="text;html=1;strokeColor=none;fillColor=none;align=left;verticalAlign=middle;whiteSpace=wrap;rounded=0;fontStyle=1;fontColor=#FF0000;fontSize=15;" vertex="1" parent="1">
          <mxGeometry x="390" y="157.5" width="60" height="20" as="geometry" />
        </mxCell>
        <mxCell id="VRM8dFKcxAQUK2xVJEkD-23" value="+3.3V" style="text;html=1;strokeColor=none;fillColor=none;align=left;verticalAlign=middle;whiteSpace=wrap;rounded=0;fontStyle=1;fontColor=#000000;fontSize=15;" vertex="1" parent="1">
          <mxGeometry x="390" y="120" width="60" height="20" as="geometry" />
        </mxCell>
        <mxCell id="VRM8dFKcxAQUK2xVJEkD-38" style="edgeStyle=orthogonalEdgeStyle;rounded=0;orthogonalLoop=1;jettySize=auto;html=1;exitX=0.75;exitY=1;exitDx=0;exitDy=0;entryX=0.256;entryY=0.22;entryDx=0;entryDy=0;entryPerimeter=0;strokeWidth=2;strokeColor=#FF1100;" edge="1" parent="1" source="VRM8dFKcxAQUK2xVJEkD-25" target="fqn3BlmnmB48ulFy7r9I-1">
          <mxGeometry relative="1" as="geometry" />
        </mxCell>
        <mxCell id="VRM8dFKcxAQUK2xVJEkD-25" value="&lt;div&gt;Alimentation&lt;/div&gt;&lt;div&gt;secteur&lt;/div&gt;" style="rounded=0;whiteSpace=wrap;html=1;strokeWidth=2;" vertex="1" parent="1">
          <mxGeometry x="40" y="120" width="120" height="60" as="geometry" />
        </mxCell>
        <mxCell id="VRM8dFKcxAQUK2xVJEkD-27" style="edgeStyle=orthogonalEdgeStyle;rounded=0;orthogonalLoop=1;jettySize=auto;html=1;exitX=1;exitY=0.5;exitDx=0;exitDy=0;entryX=0;entryY=0.5;entryDx=0;entryDy=0;strokeColor=#FF1100;strokeWidth=2;" edge="1" parent="1">
          <mxGeometry relative="1" as="geometry">
            <mxPoint x="160" y="150" as="sourcePoint" />
            <mxPoint x="210" y="150" as="targetPoint" />
          </mxGeometry>
        </mxCell>
        <mxCell id="VRM8dFKcxAQUK2xVJEkD-39" value="+24V ou +12V" style="text;html=1;strokeColor=none;fillColor=none;align=left;verticalAlign=middle;whiteSpace=wrap;rounded=0;fontStyle=1;fontColor=#FF0000;fontSize=15;" vertex="1" parent="1">
          <mxGeometry x="390" y="200" width="120" height="20" as="geometry" />
        </mxCell>
      </root>
    </mxGraphModel>
  </diagram>
</mxfile>
